# xmcd
#
# Track frame offsets:
# 150
# 12759
# 25347
# 38817
# 51414
# 62325
# 90291
# 115890
# 127296
# 137838
# 157761
# 204657
# 218256
# 230550
# 244257
#
# Disc length: 3415 seconds
#
#
# Revision: 0
# Processed by: cddbd v1.5.2PL0 Copyright (c) Steve Scherf et al.
# Submitted via: FreeRIP 2.951 
#
DISCID=c50d550f
DTITLE=Compilation Blues - Blues CD2 - Electric Blues
DYEAR=2005
DGENRE=Blues
TTITLE0=John Lee Hooker - Hobo Blues
TTITLE1=Jimmy Reed - Shame Shame Shame
TTITLE2=Sonny Boy Williamson - Better Cut Than Out
TTITLE3=T-Bone Walker - Blues Is A Woman
TTITLE4=BB King - Catfish Blues
TTITLE5=Magic Slim - Evil Woman Blues
TTITLE6=Rab Mc Cullough - When The Blues Comes Callin'
TTITLE7=Jimmy Witherspoon - Trouble In My Mind
TTITLE8=Clarence Frogman Henry - Ain't Got No Home
TTITLE9=John Mayall - Road Show
TTITLE10=Bob Diddley - I'm A Man
TTITLE11=Jelly Roll Morton - Jelly Roll Blues
TTITLE12=Memphis Slim - Blues For My Baby
TTITLE13=Pee Wee Crayton - Blues After Hours
TTITLE14=Charles Brown - Trouble Blues
EXTD=
EXTT0=
EXTT1=
EXTT2=
EXTT3=
EXTT4=
EXTT5=
EXTT6=
EXTT7=
EXTT8=
EXTT9=
EXTT10=
EXTT11=
EXTT12=
EXTT13=
EXTT14=
PLAYORDER=
